<?xml version="1.0" encoding="UTF-8"?>
<svg xmlns="http://www.w3.org/2000/svg" version="1.1" viewBox="0 0 98.7 21.2">
  <defs>
    <style>
      .cls-1 {
        fill: #ed1a3b;
      }

      .cls-2 {
        fill: #003221;
      }
    </style>
  </defs>
  <!-- Generator: Adobe Illustrator 28.7.1, SVG Export Plug-In . SVG Version: 1.2.0 Build 142)  -->
  <g>
    <g id="Layer_1">
      <g id="Layer_1-2" data-name="Layer_1">
        <g>
          <path class="cls-2" d="M75.1,11.5v-.7h-.9v.7c0,1.3-.9,1.9-1.4,2v.6s1.4-.2,1.8-1.1c.4.9,1.8,1.1,1.8,1.1v-.6c-.5-.2-1.4-.7-1.4-2h0Z"/>
          <path class="cls-2" d="M62,14.9h-.9v1.3c0,.2,0,.4.2.5,0,.1.3.2.5.2h3.4v-.7h-3.3v-1.4h.1Z"/>
          <rect class="cls-2" x="60.1" y="11.1" width="3.7" height=".7"/>
          <path class="cls-2" d="M80.6,13.4c.4.3.9.5,1.5.5s1.1-.2,1.5-.5.6-.7.6-1.2-.2-.9-.6-1.2-.9-.5-1.5-.5-1.1.2-1.5.5-.6.7-.6,1.2.2.9.6,1.2ZM81.2,11.5c.2-.2.6-.3.9-.3s.7,0,.9.3c.2.2.4.4.4.7s0,.5-.4.7c-.2.2-.6.3-.9.3s-.7,0-.9-.3c-.2-.2-.4-.4-.4-.7s0-.5.4-.7Z"/>
          <path class="cls-2" d="M90.2,12.3v.5c0,.2,0,.3,0,.4h.6c.3-.2.4-.8.4-1v-1.5h-4.6v.7h3.8v.8h-.1Z"/>
          <path class="cls-2" d="M90.2,14.7c-.4-.3-.9-.4-1.5-.4s-1.1.1-1.5.4c-.4.3-.6.6-.6,1s.2.8.6,1c.4.3.9.4,1.5.4s1.1-.1,1.5-.4.6-.6.6-1-.2-.8-.6-1ZM89.6,16.2c-.2.2-.5.2-.8.2s-.6,0-.8-.2c-.2-.2-.3-.3-.3-.6s0-.4.3-.6c.2-.2.5-.2.8-.2s.6,0,.8.2c.2.2.3.4.3.6s0,.4-.3.6Z"/>
          <polygon class="cls-2" points="88.8 12.4 87.9 12.4 87.9 13.4 85.7 13.4 85.7 14.1 91.8 14.1 91.8 13.4 88.8 13.4 88.8 12.4"/>
          <path class="cls-2" d="M72.5,13.9v-.7h-1.2c.2-.2.4-.6.4-1v-1.5h-4.6v.7h3.7v1.4c0,.2,0,.3,0,.4h-4.4v.7h6.2Z"/>
          <polygon class="cls-2" points="67.1 14.5 67.1 15.2 70.8 15.2 70.8 16.9 71.7 16.9 71.7 14.5 67.1 14.5"/>
          <path class="cls-2" d="M94.6,11.6v-.7h-.9v.7c0,1.7-.7,2.2-1.5,2.5v.6c.3,0,1.4-.4,2-1.2.5.8,1.6,1.2,2,1.2v-.6c-.8-.4-1.5-.8-1.5-2.5h0Z"/>
          <polygon class="cls-2" points="65.3 10.7 64.5 10.7 64.5 15.1 65.3 15.1 65.3 12.7 66.3 12.7 66.3 12 65.3 12 65.3 10.7"/>
          <polygon class="cls-2" points="97.8 10.7 96.9 10.7 96.9 16.9 97.8 16.9 97.8 12.8 98.7 12.8 98.7 12.2 97.8 12.2 97.8 10.7"/>
          <path class="cls-2" d="M60.7,14c.4.3.8.4,1.3.4s.9-.1,1.3-.4c.4-.3.5-.6.5-1s-.2-.8-.5-1c-.4-.3-.8-.4-1.3-.4s-.9.1-1.3.4c-.4.3-.5.6-.5,1s.2.8.5,1ZM61.3,12.3c.2-.2.4-.2.7-.2s.5,0,.7.2.3.3.3.6,0,.4-.3.6c-.2.2-.4.2-.7.2s-.5,0-.7-.2-.3-.3-.3-.6,0-.4.3-.6Z"/>
          <rect class="cls-2" x="61.5" y="10.6" width=".9" height=".9"/>
          <rect class="cls-2" x="69" y="13.6" width=".9" height="1.1"/>
          <polyline class="cls-2" points="82.9 14.7 82.9 16.9 83.8 16.9 83.8 14.7"/>
          <path class="cls-2" d="M80.6,14.7c0,1.2,0,1.5-.5,2.1h.7c.3-.4.7-.5.7-2.1"/>
          <rect class="cls-2" x="79" y="14.2" width="6.2" height=".7"/>
          <polygon class="cls-2" points="74 14.5 74 15.2 77.6 15.2 77.6 16.9 78.4 16.9 78.4 14.5 74 14.5"/>
          <polygon class="cls-2" points="77.6 10.7 78.4 10.7 78.4 14.2 77.6 14.2 77.6 12.4 76.6 12.4 76.6 11.8 77.6 11.8 77.6 10.7"/>
        </g>
        <g>
          <g>
            <g>
              <path class="cls-2" d="M42.7,7.1h-1.9c-2.7,0-5.5,2.2-6.2,4.9s.9,4.9,3.6,4.9h1.9c3.3,0,5.5-2.2,6.2-4.9s-.9-4.9-3.6-4.9ZM43.6,12c-.4,1.6-2,2.8-3.4,2.8h-.9c-1.5,0-2.3-1.3-1.9-2.8.4-1.6,2-2.8,3.4-2.8h.9c1.5,0,2.3,1.3,1.9,2.8Z"/>
              <path class="cls-2" d="M31.5,16.9c.5,0,1-.4,1.1-.9l2.4-8.9h-1.9c-.5,0-1,.4-1.1.9l-1.5,5.6-3.4-6.4h-1.9c-.5,0-1,.4-1.1.9l-2.4,8.9h1.9c.5,0,1-.4,1.1-.9l1.5-5.6,3.4,6.5h1.9Z"/>
              <path class="cls-2" d="M53.4,7.1c-2.7,0-5.5,2.2-6.2,4.9s.9,4.9,3.6,4.9h4.4c.5,0,.9-.4,1.1-.9l.3-1.2h-4.8c-1.5,0-2.3-1.3-1.9-2.8.4-1.6,2-2.8,3.4-2.8h3.7c.5,0,1-.4,1.1-.9l.3-1.2h-5.1.1Z"/>
            </g>
            <path class="cls-2" d="M14.7,14.8c-.3-2.1-1.8-3.1-3.6-3.7-.3,0-.7-.2-1-.3h0l-1.3,4.9c-.2.4-.5,1.1-1.9,1.1h-1.5l1.8-6.9c-2.1-.9-3.5-3-1.7-6.5,0-.3,0-.5-.2-.3-1.8,1.6-3.4,3.5-4.5,6.4-1.5,3.9-.7,7.9,2.1,10,2.1,1.7,5.3,2.1,7.9,1.2,2.7-1,4.3-3.1,4.1-6h-.2Z"/>
          </g>
          <path class="cls-1" d="M7.3,9.3h0l.9-3.2c.2-.4.5-1.1,1.9-1.1h1.5l-1.4,5.1,5-4.6c.4-.3,1-.5,1.7-.5h2.6l-5.9,5.4c2.8.6,5,2.8,3.7,7h0c0,.2-.1.5.3,0h0c1.6-1.8,4.8-5.9,4.5-10.3C21.9.8,16.2-.1,12.9.3c-3.5.5-5.5,2.2-6.6,3.7-1,1.5-1.5,4.3.9,5.3h.1Z"/>
        </g>
      </g>
    </g>
  </g>
</svg>